<?xml version="1.0" encoding="utf-8"?>
<!-- Generator: Adobe Illustrator 22.1.0, SVG Export Plug-In . SVG Version: 6.00 Build 0)  -->
<svg version="1.1" id="Layer_1" xmlns="http://www.w3.org/2000/svg" xmlns:xlink="http://www.w3.org/1999/xlink" x="0px" y="0px"
	 viewBox="0 0 1573 943.4" style="enable-background:new 0 0 1573 943.4;" xml:space="preserve">
<style type="text/css">
	.st0{fill:#0067A6;}
	.st1{fill:#FDFDFE;}
</style>
<path class="st0" d="M0,793.7c0.1-2.6,1.7-3.4,2.8-4.5l98.7-99.3c36.4-36.7,72.7-73.4,109.1-110.1c35.7-36,71.3-72,107-108
	c36.4-36.7,72.7-73.4,109.1-110.1c35.8-36.1,71.5-72.2,107.3-108.3c36.2-36.6,72.5-73.1,108.7-109.7
	c35.9-36.2,71.8-72.4,107.7-108.7c10.5-10.7,21.1-21.3,31.4-32.2c3.2-3.4,5.1-4.1,8.9-0.3c36.5,37.2,73.3,74.2,110,111.2
	c29,29.2,57.8,58.6,86.8,87.8c42.9,43.3,85.9,86.6,128.9,129.9c35.8,36.1,71.5,72.2,107.3,108.3c36.2,36.6,72.5,73.2,108.7,109.7
	c35.9,36.2,71.8,72.4,107.7,108.7c36.1,36.5,72.3,72.9,108.4,109.4c8.2,8.3,16.2,16.7,24.6,25.3c-2.4,1.3-4.5,0.7-6.6,0.7H942
	c-14.7,0-29.3,0.4-43.7,3.5c-27.9,6.1-48.9,21.5-61.9,47c-11.2,21.9-22,44.1-32.9,66.2c-5,10-9.8,20-14.8,30c-0.6,1.1-0.8,3-2.2,3
	c-1.8,0-1.9-2-2.5-3.3c-15-30.5-30.1-60.9-45-91.5c-16.9-34.7-45.2-51.5-83-54.1c-9.7-0.7-19.3-0.9-29-0.9H6.5
	C4.3,793.7,2.2,793.7,0,793.7L0,793.7z M669.9,535c-29.5,0-59,0.1-88.5-0.1c-4,0-5.4,0.8-5.4,5.1c0.2,18.7,0.2,37.3,0,56
	c0,3.8,0.8,5,4.8,5c24.5-0.2,49,0,73.5-0.2c3.2,0,4.2,0.8,4.2,4.1c-0.2,18.7-0.2,37.3,0,56c0,3.5-1.4,4.4-4.4,5.1
	c-30.1,6.9-60.2,7-89.9-1.4c-34.8-9.8-58-32.1-68.6-66.9c-5.5-18.2-7.1-36.9-5.3-55.8c3.5-37.1,20.6-65.9,53.7-84.2
	c19.6-10.9,41-15.4,63.2-16.6c50.8-2.6,96.8,11,137.1,42.4c4.1,3.2,8.1,4.4,13.2,4.3c3.8,0,4.7-1.1,4.7-4.8c-0.2-24.3-0.2-48.7,0-73
	c0-3.3-1.2-4.6-4-5.7c-11.5-4.5-23-8.8-34.7-12.6c-45.8-14.5-92.9-18.5-140.6-15.9c-38.3,2.1-75.1,10.2-109.4,28
	c-36.4,19-64,46.4-79.9,84.6c-13.2,31.7-16.1,64.7-11.5,98.5c7.4,54.3,34.8,95.2,83,121.6c36.9,20.2,77.2,27.4,118.7,29
	c60,2.3,118.4-6.6,175.4-25.4c3.1-1,4.1-2.2,4.1-5.4c-0.1-55.7-0.1-111.3,0-167c0-4.1-1.3-4.8-5-4.8C728.9,535,699.4,535,669.9,535
	L669.9,535z M812.9,556.4v168c0,7.4-0.6,6.3,6.5,6.3c30.8,0,61.7-0.1,92.5,0.2c5.4,0.1,6.2-1.6,6.1-6.4c-0.2-34.2,0-68.3-0.2-102.5
	c0-3.9,1-5,5-5c27,0.1,54,0.3,81-0.2c26.2-0.4,52.1-3.5,76.9-12.9c27.2-10.3,49.6-26.5,63-53c11.2-22.2,13.5-46.1,11.7-70.5
	c-1.6-22.7-10.4-42.2-27.2-57.7c-13.4-12.3-28.6-21.7-45.7-27.9c-26.9-9.7-54.9-11.9-83.1-12c-60.5-0.2-121,0-181.5-0.2
	c-4.3,0-5.1,1.3-5.1,5.3C812.9,444,812.9,500.2,812.9,556.4L812.9,556.4z"/>
<path class="st1" d="M669.9,535c29.5,0,59,0.1,88.5-0.1c3.7,0,5.1,0.7,5,4.8c-0.2,55.7-0.1,111.3,0,167c0,3.2-1,4.4-4.1,5.4
	c-57,18.9-115.4,27.8-175.4,25.4c-41.5-1.6-81.8-8.8-118.7-29c-48.2-26.4-75.6-67.3-83-121.6c-4.6-33.8-1.7-66.8,11.5-98.5
	c15.9-38.2,43.5-65.6,79.9-84.6c34.3-17.9,71.1-26,109.4-28c47.7-2.6,94.8,1.4,140.6,15.9c11.7,3.7,23.2,8.1,34.7,12.6
	c2.9,1.1,4,2.5,4,5.7c-0.2,24.3-0.2,48.7,0,73c0,3.7-0.9,4.8-4.7,4.8c-5.1,0-9.1-1.2-13.2-4.3c-40.3-31.4-86.3-45-137.1-42.4
	c-22.2,1.1-43.5,5.7-63.2,16.6c-33.1,18.3-50.2,47.1-53.7,84.2c-1.8,18.9-0.3,37.6,5.3,55.8c10.6,34.8,33.8,57.1,68.6,66.9
	c29.8,8.4,59.8,8.3,89.9,1.4c3-0.7,4.4-1.7,4.4-5.1c-0.2-18.7-0.2-37.3,0-56c0-3.3-0.9-4.1-4.2-4.1c-24.5,0.1-49,0-73.5,0.2
	c-4,0-4.9-1.2-4.8-5c0.2-18.7,0.2-37.3,0-56c-0.1-4.3,1.4-5.1,5.4-5.1C610.9,535,640.4,535,669.9,535L669.9,535z M812.9,556.4
	c0-56.2,0-112.3-0.1-168.5c0-4,0.7-5.4,5.1-5.3c60.5,0.2,121,0,181.5,0.2c28.2,0.1,56.2,2.3,83.1,12c17.1,6.2,32.4,15.6,45.7,27.9
	c16.8,15.5,25.6,35,27.2,57.7c1.8,24.4-0.5,48.3-11.7,70.5c-13.4,26.6-35.9,42.7-63,53c-24.7,9.4-50.7,12.5-76.9,12.9
	c-27,0.4-54,0.3-81,0.2c-4,0-5,1.1-5,5c0.1,34.2,0,68.3,0.2,102.5c0,4.8-0.8,6.5-6.1,6.4c-30.8-0.3-61.7-0.1-92.5-0.2
	c-7.1,0-6.5,1.2-6.5-6.3L812.9,556.4L812.9,556.4z M917.9,499.3v47.5c0,2.3-0.5,4.7,3.3,4.6c24.1-0.6,48.3,1.4,72.3-1.6
	c13.3-1.7,25.9-5.3,37.1-13.3c22.7-16.2,25.6-62-4.7-78.2c-11.5-6.1-23.7-8.7-36.3-9.3c-22.5-1.2-44.9-0.3-67.4-0.6
	c-3.7-0.1-4.4,1.3-4.3,4.6C918,468.4,917.9,483.8,917.9,499.3L917.9,499.3z"/>
<path class="st0" d="M917.9,499.3c0-15.5,0.1-31-0.1-46.5c0-3.3,0.6-4.7,4.3-4.6c22.5,0.4,44.9-0.6,67.4,0.6
	c12.7,0.7,24.9,3.2,36.3,9.3c30.3,16.2,27.4,62,4.7,78.2c-11.2,8-23.8,11.6-37.1,13.3c-24,3-48.2,1.1-72.3,1.6
	c-3.8,0.1-3.3-2.3-3.3-4.6C917.9,531,917.9,515.1,917.9,499.3z"/>
</svg>
